# xmcd
#
# Track frame offsets:
#	150
#	16167
#	32852
#	43210
#	58072
#	68860
#	80485
#	98170
#	111790
#	132365
#	154750
#	175412
#
# Disc length: 2594
#
# Revision: 1
# Processed by: cddbd v1.5.1PL0 Copyright (c) Steve Scherf et al.
# Submitted via: CDex 1.50beta9
# Normalized: r0:TDELIM( - )
#
DISCID=a10a200c
DTITLE=Various Artist - CDX Volume 164B - June 1997
DYEAR=1997
DGENRE=Country
TTITLE0=Tracy Lawrence - How A Cowgirl Says Goodbye
TTITLE1=The Buffalo Club - Nothin' Less Than Love
TTITLE2=Jack Ingram - Flutter
TTITLE3=Ricky Van Shelton - She Needs Me
TTITLE4=Cledus T Judd - Skoal - The Grundy County Spitting Incident
TTITLE5=Dixie Cadillacs - Guadalupe River
TTITLE6=Corinda - The Last Goodbye
TTITLE7=Scooter Lee - Rock and Roll Waltz
TTITLE8=James Bonamy - The Swing (DM)
TTITLE9=Alan Jackson - Who's Cheatin' Who (DM)
TTITLE10=Sawyer Brown - Six Days On The Road (DM)
TTITLE11=Dallas County Line - You're Too Good Lookin' (DM)
EXTD=YEAR: 1997
EXTT0=
EXTT1=
EXTT2=
EXTT3=
EXTT4=
EXTT5=
EXTT6=
EXTT7=
EXTT8=
EXTT9=
EXTT10=
EXTT11=
PLAYORDER=
